<svg width="17" height="19" viewBox="0 0 17 19" fill="none" xmlns="http://www.w3.org/2000/svg">
<path id="Vector" d="M13.5924 17.75C12.6124 18.7 11.5424 18.55 10.5124 18.1C9.4224 17.64 8.4224 17.62 7.2724 18.1C5.8324 18.72 5.0724 18.54 4.2124 17.75C-0.6676 12.72 0.0524006 5.05997 5.5924 4.77997C6.9424 4.84997 7.8824 5.51997 8.6724 5.57997C9.8524 5.33997 10.9824 4.64997 12.2424 4.73997C13.7524 4.85997 14.8924 5.45997 15.6424 6.53997C12.5224 8.40997 13.2624 12.52 16.1224 13.67C15.5524 15.17 14.8124 16.66 13.5824 17.76L13.5924 17.75ZM8.5724 4.71997C8.4224 2.48997 10.2324 0.649971 12.3124 0.469971C12.6024 3.04997 9.9724 4.96997 8.5724 4.71997Z" fill="white"/>
</svg>
