<svg width="21" height="21" viewBox="0 0 21 21" fill="none" xmlns="http://www.w3.org/2000/svg">
<path d="M14.8298 8.01224C14.1983 8.01224 13.5927 7.76139 13.1462 7.31487C12.6997 6.86836 12.4488 6.26275 12.4488 5.63128C12.4488 4.99982 12.6997 4.39421 13.1462 3.9477C13.5927 3.50118 14.1983 3.25033 14.8298 3.25033C15.4612 3.25033 16.0668 3.50118 16.5134 3.9477C16.9599 4.39421 17.2107 4.99982 17.2107 5.63128C17.2107 6.26275 16.9599 6.86836 16.5134 7.31487C16.0668 7.76139 15.4612 8.01224 14.8298 8.01224ZM11.906 7.20271L0.0678711 19.0503L1.41073 20.3932L13.2583 8.55509C12.6869 8.24081 12.2203 7.77414 11.906 7.20271ZM10.5441 4.20271L11.1441 2.89795L12.4488 2.29795L11.1441 1.69795L10.5441 0.393188L9.95359 1.69795L8.6393 2.29795L9.95359 2.89795L10.5441 4.20271ZM18.1631 4.20271L18.7631 2.89795L20.0679 2.29795L18.7631 1.69795L18.1631 0.393188L17.5726 1.69795L16.2583 2.29795L17.5726 2.89795L18.1631 4.20271ZM18.1631 8.01224L17.5726 9.317L16.2583 9.917L17.5726 10.517L18.1631 11.8218L18.7631 10.517L20.0679 9.917L18.7631 9.317L18.1631 8.01224Z" fill="white"/>
</svg>
