<svg width="11" height="11" viewBox="0 0 11 11" fill="none" xmlns="http://www.w3.org/2000/svg">
<path d="M6.65435 0.743337C6.65435 0.646878 6.69267 0.55437 6.76087 0.486163C6.82908 0.417957 6.92159 0.379639 7.01805 0.379639H9.68517C9.78163 0.379639 9.87414 0.417957 9.94234 0.486163C10.0106 0.55437 10.0489 0.646878 10.0489 0.743337V3.41046C10.0489 3.50692 10.0106 3.59943 9.94234 3.66763C9.87414 3.73584 9.78163 3.77416 9.68517 3.77416C9.58871 3.77416 9.4962 3.73584 9.428 3.66763C9.35979 3.59943 9.32147 3.50692 9.32147 3.41046V1.62106L6.3052 4.63733C6.2719 4.67307 6.23175 4.70173 6.18714 4.72161C6.14252 4.74148 6.09436 4.75217 6.04553 4.75304C5.9967 4.7539 5.94819 4.74491 5.9029 4.72662C5.85761 4.70833 5.81648 4.6811 5.78194 4.64657C5.7474 4.61203 5.72018 4.57089 5.70189 4.52561C5.68359 4.48032 5.67461 4.43181 5.67547 4.38298C5.67633 4.33414 5.68702 4.28598 5.7069 4.24137C5.72678 4.19676 5.75544 4.1566 5.79117 4.12331L8.80744 1.10704H7.01805C6.92159 1.10704 6.82908 1.06872 6.76087 1.00051C6.69267 0.932304 6.65435 0.839796 6.65435 0.743337Z" fill="white"/>
<path d="M0.35022 1.71313C0.35022 1.24469 0.730406 0.864502 1.19885 0.864502H5.32076C5.41722 0.864502 5.50973 0.90282 5.57794 0.971027C5.64614 1.03923 5.68446 1.13174 5.68446 1.2282C5.68446 1.32466 5.64614 1.41717 5.57794 1.48537C5.50973 1.55358 5.41722 1.5919 5.32076 1.5919H1.19885C1.1667 1.5919 1.13586 1.60467 1.11312 1.62741C1.09039 1.65014 1.07762 1.68098 1.07762 1.71313V9.22957C1.07762 9.29649 1.13193 9.3508 1.19885 9.3508H8.71528C8.74744 9.3508 8.77827 9.33803 8.80101 9.31529C8.82374 9.29255 8.83652 9.26172 8.83652 9.22957V5.10765C8.83652 5.01119 8.87483 4.91868 8.94304 4.85048C9.01125 4.78227 9.10375 4.74395 9.20021 4.74395C9.29667 4.74395 9.38918 4.78227 9.45739 4.85048C9.52559 4.91868 9.56391 5.01119 9.56391 5.10765V9.22957C9.56391 9.45464 9.4745 9.67049 9.31535 9.82964C9.15621 9.98879 8.94035 10.0782 8.71528 10.0782H1.19885C0.973779 10.0782 0.757927 9.98879 0.598778 9.82964C0.439629 9.67049 0.35022 9.45464 0.35022 9.22957V1.71313Z" fill="white"/>
</svg>
