<svg width="15" height="16" viewBox="0 0 15 16" fill="none" xmlns="http://www.w3.org/2000/svg">
<path d="M13.9794 0.837524H1.23073C0.794055 0.837524 0.440063 1.19152 0.440063 1.62819V14.3769C0.440063 14.8135 0.794055 15.1675 1.23073 15.1675H13.9794C14.4161 15.1675 14.7701 14.8135 14.7701 14.3769V1.62819C14.7701 1.19152 14.4161 0.837524 13.9794 0.837524Z" fill="#1877F2"/>
<path d="M10.3264 15.1664V9.61721H12.1886L12.4671 7.45469H10.3264V6.07436C10.3264 5.44837 10.5007 5.02095 11.398 5.02095H12.5434V3.08365C11.9887 3.02584 11.4313 2.99836 10.8737 3.00131C9.22454 3.00131 8.0888 4.00629 8.0888 5.86005V7.45469H6.22656V9.61721H8.0888V15.1664H10.3264Z" fill="white"/>
</svg>
