<svg width="16" height="16" viewBox="0 0 16 16" fill="none" xmlns="http://www.w3.org/2000/svg">
<path d="M11.7616 0.836426H4.14875C2.29385 0.836426 0.790161 2.34012 0.790161 4.19502V11.8078C0.790161 13.6627 2.29385 15.1664 4.14875 15.1664H11.7616C13.6165 15.1664 15.1202 13.6627 15.1202 11.8078V4.19502C15.1202 2.34012 13.6165 0.836426 11.7616 0.836426Z" fill="url(#paint0_radial_363_433)"/>
<path d="M11.7616 0.836426H4.14875C2.29385 0.836426 0.790161 2.34012 0.790161 4.19502V11.8078C0.790161 13.6627 2.29385 15.1664 4.14875 15.1664H11.7616C13.6165 15.1664 15.1202 13.6627 15.1202 11.8078V4.19502C15.1202 2.34012 13.6165 0.836426 11.7616 0.836426Z" fill="url(#paint1_radial_363_433)"/>
<path d="M7.9557 2.40381C6.43549 2.40381 6.24467 2.41047 5.64762 2.43762C5.0517 2.46494 4.64491 2.55926 4.28902 2.69769C3.9208 2.84065 3.60851 3.03192 3.29739 3.34315C2.98599 3.65432 2.79472 3.96662 2.65131 4.33466C2.51249 4.69068 2.41805 5.09762 2.39124 5.69327C2.36454 6.29037 2.35754 6.48125 2.35754 8.00152C2.35754 9.52179 2.36426 9.712 2.39135 10.309C2.41878 10.905 2.5131 11.3118 2.65142 11.6676C2.7945 12.0359 2.98577 12.3482 3.297 12.6593C3.60806 12.9707 3.92035 13.1624 4.28829 13.3054C4.64447 13.4438 5.0513 13.5381 5.64712 13.5654C6.24422 13.5926 6.43488 13.5992 7.95503 13.5992C9.47541 13.5992 9.66562 13.5926 10.2627 13.5654C10.8586 13.5381 11.2658 13.4438 11.622 13.3054C11.99 13.1624 12.3019 12.9707 12.6129 12.6593C12.9243 12.3482 13.1155 12.0359 13.259 11.6678C13.3966 11.3118 13.4911 10.9049 13.519 10.3092C13.5459 9.71211 13.5529 9.52179 13.5529 8.00152C13.5529 6.48125 13.5459 6.29049 13.519 5.69338C13.4911 5.09746 13.3966 4.69073 13.259 4.33483C13.1155 3.96662 12.9243 3.65432 12.6129 3.34315C12.3016 3.03181 11.9902 2.84054 11.6217 2.69774C11.2648 2.55926 10.8578 2.46488 10.2619 2.43762C9.66478 2.41047 9.47468 2.40381 7.95397 2.40381H7.9557ZM7.45354 3.41256C7.6026 3.41234 7.76891 3.41256 7.9557 3.41256C9.45033 3.41256 9.62744 3.41794 10.2177 3.44475C10.7634 3.46971 11.0597 3.5609 11.257 3.63753C11.5182 3.73896 11.7045 3.86026 11.9003 4.05624C12.0962 4.25215 12.2174 4.43872 12.3191 4.69997C12.3958 4.897 12.4871 5.19323 12.5119 5.739C12.5387 6.32911 12.5446 6.50633 12.5446 8.00023C12.5446 9.49414 12.5387 9.67141 12.5119 10.2615C12.487 10.8072 12.3958 11.1035 12.3191 11.3006C12.2177 11.5618 12.0962 11.7478 11.9003 11.9436C11.7043 12.1395 11.5183 12.2608 11.257 12.3623C11.0599 12.4392 10.7634 12.5302 10.2177 12.5552C9.62756 12.582 9.45033 12.5878 7.9557 12.5878C6.46102 12.5878 6.28385 12.582 5.6938 12.5552C5.14803 12.53 4.8518 12.4388 4.65432 12.3622C4.39313 12.2607 4.20651 12.1394 4.01059 11.9435C3.81467 11.7476 3.69342 11.5615 3.59172 11.3001C3.51508 11.103 3.42379 10.8068 3.39893 10.261C3.37212 9.67091 3.36675 9.49369 3.36675 7.99883C3.36675 6.50404 3.37212 6.32771 3.39893 5.7376C3.4239 5.19183 3.51508 4.89561 3.59172 4.69829C3.6932 4.43705 3.81467 4.25048 4.01064 4.05456C4.20656 3.85864 4.39313 3.73734 4.65437 3.63568C4.85169 3.55872 5.14803 3.46775 5.6938 3.44268C6.21019 3.41934 6.4103 3.41234 7.45354 3.41116V3.41256ZM10.9437 4.342C10.5729 4.342 10.272 4.64259 10.272 5.01349C10.272 5.38434 10.5729 5.68521 10.9437 5.68521C11.3146 5.68521 11.6155 5.38434 11.6155 5.01349C11.6155 4.64265 11.3146 4.34177 10.9437 4.34177V4.342ZM7.9557 5.12684C6.36821 5.12684 5.08108 6.41397 5.08108 8.00152C5.08108 9.58907 6.36821 10.8756 7.9557 10.8756C9.54326 10.8756 10.8299 9.58907 10.8299 8.00152C10.8299 6.41403 9.54314 5.12684 7.95559 5.12684H7.9557ZM7.9557 6.1356C8.98618 6.1356 9.82163 6.97094 9.82163 8.00152C9.82163 9.03199 8.98618 9.86744 7.9557 9.86744C6.92518 9.86744 6.08984 9.03199 6.08984 8.00152C6.08984 6.97094 6.92518 6.1356 7.9557 6.1356Z" fill="white"/>
<defs>
<radialGradient id="paint0_radial_363_433" cx="0" cy="0" r="1" gradientUnits="userSpaceOnUse" gradientTransform="translate(4.59657 16.2701) rotate(-90) scale(14.2021 13.2091)">
<stop stop-color="#FFDD55"/>
<stop offset="0.1" stop-color="#FFDD55"/>
<stop offset="0.5" stop-color="#FF543E"/>
<stop offset="1" stop-color="#C837AB"/>
</radialGradient>
<radialGradient id="paint1_radial_363_433" cx="0" cy="0" r="1" gradientUnits="userSpaceOnUse" gradientTransform="translate(-1.61017 1.86869) rotate(78.681) scale(6.34841 26.1684)">
<stop stop-color="#3771C8"/>
<stop offset="0.128" stop-color="#3771C8"/>
<stop offset="1" stop-color="#6600FF" stop-opacity="0"/>
</radialGradient>
</defs>
</svg>
