<svg width="15" height="16" viewBox="0 0 15 16" fill="none" xmlns="http://www.w3.org/2000/svg">
<path d="M5.82541 0.675415C5.28247 0.675415 4.76177 0.891096 4.37786 1.27501C3.99394 1.65892 3.77826 2.17962 3.77826 2.72256V4.98158C4.11285 4.88687 4.45551 4.82348 4.80184 4.79222V2.72256C4.80184 2.45109 4.90968 2.19074 5.10163 1.99878C5.29359 1.80683 5.55394 1.69899 5.82541 1.69899H8.89612V4.25792C8.89612 4.66512 9.05788 5.05564 9.34582 5.34358C9.63375 5.63151 10.0243 5.79327 10.4315 5.79327H12.9904V12.9583C12.9904 13.2297 12.8826 13.4901 12.6906 13.682C12.4987 13.874 12.2383 13.9818 11.9668 13.9818H9.65459C9.33421 14.3708 8.96265 14.7147 8.54913 15.0054H11.9668C12.5098 15.0054 13.0305 14.7897 13.4144 14.4058C13.7983 14.0219 14.014 13.5012 14.014 12.9583V5.19346C14.0139 4.78654 13.8523 4.3963 13.5646 4.10847L10.5819 1.12476C10.4393 0.982213 10.27 0.86916 10.0836 0.79206C9.8973 0.71496 9.69759 0.675324 9.49593 0.675415H5.82541ZM12.7775 4.7697H10.4315C10.2957 4.7697 10.1656 4.71578 10.0696 4.6198C9.97361 4.52382 9.91969 4.39365 9.91969 4.25792V1.91087L12.7785 4.7697H12.7775ZM1.35649 9.80567C1.62081 9.73806 1.86895 9.6183 2.08632 9.45343C2.3037 9.28855 2.48592 9.08189 2.62228 8.84559C2.75865 8.60929 2.84641 8.34811 2.88039 8.07741C2.91438 7.80671 2.89392 7.53194 2.8202 7.26926L2.66155 6.69913C2.92154 6.49954 3.20302 6.3286 3.5019 6.19042L3.84787 6.55686C4.03917 6.75984 4.26993 6.92159 4.526 7.03217C4.78206 7.14276 5.05802 7.19985 5.33694 7.19995C5.61587 7.20005 5.89187 7.14314 6.14801 7.03273C6.40414 6.92232 6.63502 6.76073 6.82646 6.55788L7.1581 6.20577C7.46312 6.34907 7.74972 6.5282 8.01278 6.73598L7.88381 7.16895C7.80396 7.43614 7.77954 7.71682 7.81205 7.99378C7.84456 8.27074 7.93331 8.53814 8.07286 8.77957C8.21241 9.02101 8.39982 9.23138 8.62358 9.3978C8.84735 9.56421 9.10275 9.68315 9.37413 9.74733L9.73135 9.83126C9.77241 10.1769 9.77584 10.5259 9.74159 10.8722L9.27075 10.993C9.00645 11.0605 8.75831 11.1802 8.54091 11.3449C8.3235 11.5097 8.14121 11.7162 8.00476 11.9524C7.8683 12.1886 7.78043 12.4497 7.7463 12.7204C7.71217 12.991 7.73247 13.2657 7.80602 13.5284L7.96569 14.0985C7.70492 14.299 7.42274 14.47 7.12432 14.6083L6.77938 14.2418C6.58814 14.0388 6.35744 13.877 6.10141 13.7663C5.84539 13.6556 5.56944 13.5984 5.29052 13.5982C5.0116 13.598 4.73558 13.6548 4.4794 13.7652C4.22322 13.8755 3.99229 14.037 3.80078 14.2398L3.46812 14.5919C3.164 14.4482 2.87725 14.2703 2.61344 14.0617L2.74343 13.6297C2.82344 13.3625 2.84799 13.0817 2.81556 12.8046C2.78313 12.5275 2.69441 12.26 2.55484 12.0185C2.41528 11.7769 2.22782 11.5664 2.00397 11.3999C1.78012 11.2335 1.52461 11.1145 1.25311 11.0503L0.894864 10.9664C0.853882 10.6211 0.85045 10.2725 0.884628 9.92645L1.35649 9.80567ZM6.33617 10.3993C6.33617 10.1279 6.22833 9.86753 6.03637 9.67557C5.84442 9.48361 5.58407 9.37577 5.3126 9.37577C5.04113 9.37577 4.78078 9.48361 4.58882 9.67557C4.39687 9.86753 4.28903 10.1279 4.28903 10.3993C4.28903 10.6708 4.39687 10.9312 4.58882 11.1231C4.78078 11.3151 5.04113 11.4229 5.3126 11.4229C5.58407 11.4229 5.84442 11.3151 6.03637 11.1231C6.22833 10.9312 6.33617 10.6708 6.33617 10.3993Z" fill="white"/>
</svg>
