<svg width="15" height="17" viewBox="0 0 15 17" fill="none" xmlns="http://www.w3.org/2000/svg">
<path d="M11.7988 8.08187V3.8163C11.7989 3.76244 11.7883 3.7091 11.7677 3.65933C11.7471 3.60956 11.7168 3.56435 11.6787 3.52629L9.5306 1.37816C9.45389 1.30135 9.34982 1.25815 9.24127 1.25806H1.29017C1.18158 1.25806 1.07744 1.30119 1.00066 1.37798C0.923873 1.45476 0.880737 1.5589 0.880737 1.66749V14.4962C0.880737 14.6048 0.923873 14.709 1.00066 14.7858C1.07744 14.8625 1.18158 14.9057 1.29017 14.9057H7.02217M3.61026 6.7171H9.06931M3.61026 3.98758H6.33978M3.61026 9.44663H5.6574" stroke="white" stroke-linecap="round" stroke-linejoin="round"/>
<path d="M9.06934 1.25806V3.57815C9.06934 3.68674 9.11247 3.79088 9.18925 3.86766C9.26604 3.94444 9.37018 3.98758 9.47876 3.98758H11.7989M11.7934 10.2143L13.5376 10.6572C13.7191 10.7036 13.8467 10.8687 13.8412 11.0557C13.7239 14.9848 11.4577 15.5881 11.4577 15.5881C11.4577 15.5881 9.19148 14.9848 9.07411 11.0557C9.072 10.9647 9.10092 10.8756 9.1561 10.8032C9.21128 10.7308 9.28945 10.6793 9.37777 10.6572L11.1219 10.2143C11.3423 10.1584 11.573 10.1584 11.7934 10.2143Z" stroke="white" stroke-linecap="round" stroke-linejoin="round"/>
</svg>
