<svg width="14" height="17" viewBox="0 0 14 17" fill="none" xmlns="http://www.w3.org/2000/svg">
<path d="M5.05371 8.65515C5.05371 9.18287 4.84408 9.68896 4.47093 10.0621C4.09778 10.4353 3.59168 10.6449 3.06396 10.6449C2.53625 10.6449 2.03015 10.4353 1.657 10.0621C1.28385 9.68896 1.07422 9.18287 1.07422 8.65515C1.07422 8.12744 1.28385 7.62134 1.657 7.24819C2.03015 6.87504 2.53625 6.66541 3.06396 6.66541C3.59168 6.66541 4.09778 6.87504 4.47093 7.24819C4.84408 7.62134 5.05371 8.12744 5.05371 8.65515Z" stroke="white"/>
<path d="M9.0332 4.27771L5.05371 7.06335M9.0332 13.0326L5.05371 10.2469" stroke="white" stroke-linecap="round"/>
<path d="M13.0127 13.8285C13.0127 14.3562 12.8031 14.8623 12.4299 15.2355C12.0568 15.6086 11.5507 15.8182 11.0229 15.8182C10.4952 15.8182 9.98914 15.6086 9.61599 15.2355C9.24284 14.8623 9.0332 14.3562 9.0332 13.8285C9.0332 13.3008 9.24284 12.7947 9.61599 12.4215C9.98914 12.0484 10.4952 11.8387 11.0229 11.8387C11.5507 11.8387 12.0568 12.0484 12.4299 12.4215C12.8031 12.7947 13.0127 13.3008 13.0127 13.8285ZM13.0127 3.48181C13.0127 4.00953 12.8031 4.51562 12.4299 4.88877C12.0568 5.26192 11.5507 5.47156 11.0229 5.47156C10.4952 5.47156 9.98914 5.26192 9.61599 4.88877C9.24284 4.51562 9.0332 4.00953 9.0332 3.48181C9.0332 2.9541 9.24284 2.448 9.61599 2.07485C9.98914 1.7017 10.4952 1.49207 11.0229 1.49207C11.5507 1.49207 12.0568 1.7017 12.4299 2.07485C12.8031 2.448 13.0127 2.9541 13.0127 3.48181Z" stroke="white"/>
</svg>
