<svg width="14" height="16" viewBox="0 0 14 16" fill="none" xmlns="http://www.w3.org/2000/svg">
<path d="M8.84549 1.07826L12.5059 4.73866M3.80023 7.84569H9.77988M3.80023 12.2792H9.77988M3.80023 10.0624H9.77988M1.78888 1.07826C1.5977 1.08296 1.41594 1.16222 1.28241 1.29912C1.14888 1.43601 1.07416 1.61969 1.07422 1.81093V14.6719C1.07416 14.8631 1.14882 15.0467 1.28228 15.1836C1.41573 15.3205 1.5974 15.3998 1.78851 15.4046H11.7916C11.9859 15.4046 12.1723 15.3274 12.3097 15.19C12.4471 15.0526 12.5243 14.8662 12.5243 14.6719V4.73866H9.59322C9.40198 4.73395 9.22016 4.65464 9.08662 4.51767C8.95308 4.38069 8.8784 4.19692 8.87856 4.00562V1.07458L1.78888 1.07826Z" stroke="white" stroke-linecap="round" stroke-linejoin="round"/>
</svg>
