<svg width="19" height="16" viewBox="0 0 19 16" fill="none" xmlns="http://www.w3.org/2000/svg">
<path d="M18.6281 2.53278C17.9679 2.82529 17.2675 3.0173 16.5503 3.10241C17.2973 2.65469 17.8709 1.94572 18.141 1.10099C17.4309 1.52238 16.6539 1.81928 15.8438 1.97885C15.1838 1.2758 14.2437 0.836426 13.2032 0.836426C11.2053 0.836426 9.58543 2.45618 9.58543 4.45395C9.58543 4.73753 9.61746 5.01359 9.67911 5.27843C6.67254 5.12752 4.00692 3.68733 2.22261 1.49863C1.91128 2.03292 1.73288 2.65442 1.73288 3.31731C1.73288 4.57242 2.3716 5.67965 3.34224 6.32842C2.76775 6.31043 2.20591 6.15527 1.70361 5.87589C1.7034 5.89104 1.7034 5.9062 1.7034 5.92142C1.7034 7.67418 2.95039 9.13635 4.60527 9.46869C4.07255 9.61357 3.51377 9.63477 2.9716 9.53068C3.43192 10.9679 4.76796 12.0138 6.35094 12.043C5.11284 13.0133 3.55294 13.5916 1.8581 13.5916C1.56606 13.5916 1.27814 13.5745 0.995117 13.5411C2.59607 14.5675 4.49761 15.1664 6.54057 15.1664C13.1948 15.1664 16.8334 9.65397 16.8334 4.87349C16.8334 4.71659 16.83 4.56058 16.823 4.40546C17.5312 3.89347 18.1425 3.25932 18.6281 2.53278Z" fill="#55ACEE"/>
</svg>
